<svg data-v-423bf9ae="" xmlns="http://www.w3.org/2000/svg" viewBox="0 0 614 90" class="iconLeft"><!----><!----><!----><g data-v-423bf9ae="" id="139b27fd-ec44-443b-afbc-9f33e6581f6b" fill="#000000" transform="matrix(4.850444295015776,0,0,4.850444295015776,181.87048400219962,0.9337125123913097)"><path d="M2.74 12.67L0 5.50L1.91 5.50L3.66 10.51L5.47 5.50L7.38 5.50L4.46 12.67L2.74 12.67ZM9.71 9.06L9.71 9.06Q9.71 11.31 11.45 11.31L11.45 11.31L11.45 11.31Q13.19 11.31 13.19 9.06L13.19 9.06L13.19 9.06Q13.19 6.86 11.45 6.86L11.45 6.86L11.45 6.86Q9.71 6.86 9.71 9.06L9.71 9.06ZM7.90 9.08L7.90 9.08L7.90 9.08Q7.90 5.48 11.45 5.48L11.45 5.48L11.45 5.48Q15.00 5.48 15.00 9.08L15.00 9.08L15.00 9.08Q15.00 12.69 11.45 12.69L11.45 12.69L11.45 12.69Q7.91 12.69 7.90 9.08ZM16.37 2.90L18.18 2.90L18.18 12.67L16.37 12.67L16.37 2.90ZM22.92 5.50L22.92 5.50L22.92 5.50Q26.19 5.50 26.19 8.83L26.19 8.83L26.19 8.83Q26.19 9.28 26.13 9.72L26.13 9.72L21.36 9.72L21.36 9.72Q21.36 11.24 23.59 11.24L23.59 11.24L23.59 11.24Q24.68 11.24 25.76 11.03L25.76 11.03L25.76 12.47L25.76 12.47Q24.81 12.67 23.45 12.67L23.45 12.67L23.45 12.67Q19.55 12.67 19.55 9.00L19.55 9.00L19.55 9.00Q19.55 5.50 22.92 5.50ZM21.36 8.46L21.36 8.46L24.42 8.46L24.42 8.41L24.42 8.41Q24.42 6.92 22.92 6.92L22.92 6.92L22.92 6.92Q21.49 6.92 21.36 8.46ZM27.45 10.74L27.45 4.33L28.79 4.33L29.06 5.50L30.86 5.50L30.86 6.93L29.26 6.93L29.26 10.23L29.26 10.23Q29.26 11.24 30.13 11.24L30.13 11.24L30.86 11.24L30.86 12.67L29.25 12.67L29.25 12.67Q27.45 12.67 27.45 10.74L27.45 10.74ZM32.09 2.90L33.91 2.90L33.91 4.33L32.09 4.33L32.09 2.90ZM32.09 5.50L33.91 5.50L33.91 12.67L32.09 12.67L32.09 5.50ZM35.62 12.33L35.62 12.33L35.62 10.83L35.62 10.83Q36.81 11.31 38.38 11.31L38.38 11.31L38.38 11.31Q39.55 11.31 39.55 10.55L39.55 10.55L39.55 10.55Q39.55 9.84 38.76 9.84L38.76 9.84L37.46 9.84L37.46 9.84Q35.27 9.84 35.27 7.68L35.27 7.68L35.27 7.68Q35.27 5.43 38.47 5.43L38.47 5.43L38.47 5.43Q39.82 5.43 41.02 5.84L41.02 5.84L41.02 7.34L41.02 7.34Q39.82 6.86 38.42 6.86L38.42 6.86L38.42 6.86Q36.95 6.86 36.95 7.62L36.95 7.62L36.95 7.62Q36.95 8.33 37.80 8.33L37.80 8.33L38.96 8.33L38.96 8.33Q41.36 8.33 41.36 10.49L41.36 10.49L41.36 10.49Q41.36 12.74 38.31 12.74L38.31 12.74L38.31 12.74Q36.81 12.74 35.62 12.33ZM43.76 12.67L42.01 5.50L43.83 5.50L44.76 10.49L46.42 5.50L47.97 5.50L49.77 10.49L50.57 5.50L52.46 5.50L50.59 12.67L48.88 12.67L47.20 7.58L45.49 12.67L43.76 12.67ZM53.21 10.44L53.21 10.44L53.21 10.44Q53.21 8.30 56.33 8.30L56.33 8.30L56.33 8.30Q57.06 8.30 57.79 8.44L57.79 8.44L57.79 7.90L57.79 7.90Q57.79 6.93 56.40 6.93L56.40 6.93L56.40 6.93Q55.23 6.93 53.79 7.27L53.79 7.27L53.79 5.84L53.79 5.84Q55.23 5.50 56.40 5.50L56.40 5.50L56.40 5.50Q59.60 5.50 59.60 7.86L59.60 7.86L59.60 12.67L58.55 12.67L57.91 12.03L57.91 12.03Q56.97 12.67 55.84 12.67L55.84 12.67L55.84 12.67Q53.21 12.67 53.21 10.44ZM57.79 9.67L57.79 9.67Q57.11 9.53 56.33 9.53L56.33 9.53L56.33 9.53Q55.02 9.53 55.02 10.42L55.02 10.42L55.02 10.42Q55.02 11.38 56.12 11.38L56.12 11.38L56.12 11.38Q57.02 11.38 57.79 10.81L57.79 10.81L57.79 9.67ZM63.12 12.67L61.31 12.67L61.31 5.50L62.71 5.50L62.94 6.41L62.94 6.41Q63.88 5.50 64.93 5.50L64.93 5.50L64.93 6.96L64.93 6.96Q63.92 6.96 63.12 7.80L63.12 7.80L63.12 12.67ZM67.43 9.06L67.43 9.06Q67.43 11.31 69.17 11.31L69.17 11.31L69.17 11.31Q70.92 11.31 70.92 9.06L70.92 9.06L70.92 9.06Q70.92 6.86 69.17 6.86L69.17 6.86L69.17 6.86Q67.43 6.86 67.43 9.06L67.43 9.06ZM65.62 9.08L65.62 9.08L65.62 9.08Q65.62 5.48 69.17 5.48L69.17 5.48L69.17 5.48Q72.73 5.48 72.73 9.08L72.73 9.08L72.73 9.08Q72.73 12.69 69.17 12.69L69.17 12.69L69.17 12.69Q65.63 12.69 65.62 9.08ZM75.56 9.06L75.56 9.06Q75.56 11.31 77.31 11.31L77.31 11.31L77.31 11.31Q79.05 11.31 79.05 9.06L79.05 9.06L79.05 9.06Q79.05 6.86 77.31 6.86L77.31 6.86L77.31 6.86Q75.56 6.86 75.56 9.06L75.56 9.06ZM73.75 9.08L73.75 9.08L73.75 9.08Q73.75 5.48 77.31 5.48L77.31 5.48L77.31 5.48Q80.86 5.48 80.86 9.08L80.86 9.08L80.86 9.08Q80.86 12.69 77.31 12.69L77.31 12.69L77.31 12.69Q73.77 12.69 73.75 9.08ZM84.04 7.05L84.04 10.80L84.04 10.80Q84.72 11.17 85.50 11.17L85.50 11.17L85.50 11.17Q87.12 11.17 87.12 8.89L87.12 8.89L87.12 8.89Q87.12 6.96 85.33 6.96L85.33 6.96L85.33 6.96Q84.55 6.96 84.04 7.05L84.04 7.05ZM82.23 15.27L82.23 5.79L82.23 5.79Q83.66 5.50 85.25 5.50L85.25 5.50L85.25 5.50Q88.91 5.50 88.91 8.91L88.91 8.91L88.91 8.91Q88.91 12.67 85.50 12.67L85.50 12.67L85.50 12.67Q84.78 12.67 84.04 12.33L84.04 12.33L84.04 15.27L82.23 15.27Z"></path></g><defs data-v-423bf9ae=""><linearGradient data-v-423bf9ae="" gradientTransform="rotate(25)" id="af75c650-4539-4e5d-a9e2-afa8d52dc786" x1="0%" y1="0%" x2="100%" y2="0%"><stop data-v-423bf9ae="" offset="0%" style="stop-color: rgb(0, 21, 214); stop-opacity: 1;"></stop><stop data-v-423bf9ae="" offset="100%" style="stop-color: rgb(9, 137, 251); stop-opacity: 1;"></stop></linearGradient></defs><g data-v-423bf9ae="" id="845a871c-5ec1-4b85-8b91-acfbbc4bc204" transform="matrix(1.6187050803947471,0,0,1.6187050803947471,0.06475215513248145,-0.12374101792283909)" stroke="none" fill="url(#af75c650-4539-4e5d-a9e2-afa8d52dc786)"><path d="M97.9 26.5h-3l-.2-24C94.7 1 93.5.2 91.9.2H29.4c-1.5 0-2.7 1.2-2.7 2.8l.2 23.7H1.7c-1 0-1.7.8-1.7 1.7V54c0 1 .8 1.7 1.7 1.7h39.2c1 0 1.7-.8 1.7-1.7v-8.3l12.4-.1c-.2.6-.6 1.5-.8 1.8-.8 1.1-.9.8-4 3.9-1 1 0 1.4 0 1.4h21.3c.3 0 1-.4 0-1.4-3.1-3.1-3.2-2.8-4-3.9-.3-.3-.6-1.2-.9-1.9l17.6-.1v8.3c0 1.2.9 2.1 2.1 2.1h11.6c1.2 0 2.1-.9 2.1-2.1v-25c0-1.2-.9-2.2-2.1-2.2zm-61 26.2c0 .6-.5 1-1 1H3.4c-.6 0-1-.5-1-1v-23c0-.6.5-1 1-1h32.4c.6 0 1 .5 1 1v23zm4.2-11.5c0 .8-.6 1.4-1.4 1.4s-1.4-.6-1.4-1.4c0-.8.6-1.4 1.4-1.4s1.4.6 1.4 1.4zm1.5-1.9V28.4c0-1-.8-1.7-1.7-1.7h-11V3.3h61.8v23.3h-5.4c-1.2 0-2.1.9-2.1 2.1v10.6H42.6zm49.5 14.9c-.8 0-1.4-.6-1.4-1.4 0-.8.6-1.4 1.4-1.4.8 0 1.4.6 1.4 1.4 0 .8-.6 1.4-1.4 1.4zm6-4.8c0 .4-.3.7-.7.7H86.8c-.4 0-.7-.3-.7-.7V30.6c0-.4.3-.7.7-.7h10.5c.4 0 .7.3.7.7v18.8z"></path></g><!----></svg>