<svg xmlns="http://www.w3.org/2000/svg" viewBox="0 0 468 90" class="iconLeft">
  <g fill="#000000"
    transform="matrix(4.501120476696424,0,0,4.501120476696424,0.32077731174036,8.24831785444389)">
    <path
      d="M4.81 12.10L0.46 1.96L1.56 1.96L4.92 9.80L8.33 1.96L9.44 1.96L5.02 12.10L4.81 12.10ZM13.23 4.22L13.23 4.22L13.23 4.22Q14.96 4.22 16.10 5.47L16.10 5.47L16.10 5.47Q17.13 6.62 17.13 8.18L17.13 8.18L17.13 8.18Q17.13 9.75 16.04 10.92L16.04 10.92L16.04 10.92Q14.94 12.09 13.23 12.09L13.23 12.09L13.23 12.09Q11.50 12.09 10.41 10.92L10.41 10.92L10.41 10.92Q9.32 9.75 9.32 8.18L9.32 8.18L9.32 8.18Q9.32 6.62 10.36 5.48L10.36 5.48L10.36 5.48Q11.50 4.22 13.23 4.22ZM13.23 5.16L13.23 5.16L13.23 5.16Q12.03 5.16 11.17 6.05L11.17 6.05L11.17 6.05Q10.31 6.94 10.31 8.20L10.31 8.20L10.31 8.20Q10.31 9.01 10.70 9.72L10.70 9.72L10.70 9.72Q11.09 10.42 11.76 10.80L11.76 10.80L11.76 10.80Q12.43 11.18 13.23 11.18L13.23 11.18L13.23 11.18Q14.03 11.18 14.70 10.80L14.70 10.80L14.70 10.80Q15.37 10.42 15.76 9.72L15.76 9.72L15.76 9.72Q16.15 9.01 16.15 8.20L16.15 8.20L16.15 8.20Q16.15 6.94 15.29 6.05L15.29 6.05L15.29 6.05Q14.42 5.16 13.23 5.16ZM18.76 12.09L18.76 1.69L19.73 1.69L19.73 12.09L18.76 12.09ZM28.03 9.42L28.03 9.42L28.84 9.85L28.84 9.85Q28.45 10.64 27.92 11.12L27.92 11.12L27.92 11.12Q27.40 11.59 26.74 11.84L26.74 11.84L26.74 11.84Q26.09 12.09 25.26 12.09L25.26 12.09L25.26 12.09Q23.43 12.09 22.39 10.89L22.39 10.89L22.39 10.89Q21.36 9.69 21.36 8.18L21.36 8.18L21.36 8.18Q21.36 6.75 22.24 5.64L22.24 5.64L22.24 5.64Q23.34 4.22 25.21 4.22L25.21 4.22L25.21 4.22Q27.12 4.22 28.27 5.67L28.27 5.67L28.27 5.67Q29.08 6.70 29.09 8.23L29.09 8.23L22.35 8.23L22.35 8.23Q22.38 9.54 23.19 10.38L23.19 10.38L23.19 10.38Q23.99 11.22 25.18 11.22L25.18 11.22L25.18 11.22Q25.75 11.22 26.29 11.02L26.29 11.02L26.29 11.02Q26.83 10.81 27.21 10.49L27.21 10.49L27.21 10.49Q27.59 10.16 28.03 9.42ZM22.46 7.40L28.03 7.40L28.03 7.40Q27.84 6.63 27.47 6.17L27.47 6.17L27.47 6.17Q27.10 5.71 26.50 5.42L26.50 5.42L26.50 5.42Q25.89 5.14 25.22 5.14L25.22 5.14L25.22 5.14Q24.12 5.14 23.32 5.85L23.32 5.85L23.32 5.85Q22.75 6.37 22.46 7.40L22.46 7.40ZM33.58 11.03L33.58 11.03L33.58 11.03Q32.87 11.41 32.19 11.09L32.19 11.09L32.19 11.09Q31.36 10.45 31.40 9.28L31.40 9.28L31.40 6.10L33.17 6.10L33.17 5.28L31.39 5.28L31.39 1.65L30.42 1.65L30.42 9.44L30.42 9.44Q30.41 10.26 30.80 10.94L30.80 10.94L30.80 10.94Q31.44 12.03 32.55 12.09L32.55 12.09L32.55 12.09Q33.13 12.11 33.89 11.83L33.89 11.83L33.89 11.83Q33.77 11.54 33.58 11.03ZM35.76 1.50L35.76 1.50L35.76 1.50Q36.09 1.50 36.32 1.74L36.32 1.74L36.32 1.74Q36.56 1.97 36.56 2.30L36.56 2.30L36.56 2.30Q36.56 2.63 36.32 2.86L36.32 2.86L36.32 2.86Q36.09 3.10 35.76 3.10L35.76 3.10L35.76 3.10Q35.43 3.10 35.20 2.86L35.20 2.86L35.20 2.86Q34.97 2.63 34.97 2.30L34.97 2.30L34.97 2.30Q34.97 1.97 35.20 1.74L35.20 1.74L35.20 1.74Q35.43 1.50 35.76 1.50ZM35.28 12.09L35.28 4.59L36.24 4.59L36.24 12.09L35.28 12.09ZM41.32 10.02L41.32 10.02L42.18 9.50L42.18 9.50Q43.09 11.18 44.28 11.18L44.28 11.18L44.28 11.18Q44.79 11.18 45.24 10.94L45.24 10.94L45.24 10.94Q45.69 10.70 45.92 10.30L45.92 10.30L45.92 10.30Q46.16 9.91 46.16 9.45L46.16 9.45L46.16 9.45Q46.16 8.95 45.81 8.46L45.81 8.46L45.81 8.46Q45.34 7.78 44.07 7.08L44.07 7.08L44.07 7.08Q42.80 6.12 42.50 5.69L42.50 5.69L42.50 5.69Q41.96 4.98 41.96 4.14L41.96 4.14L41.96 4.14Q41.96 3.47 42.27 2.93L42.27 2.93L42.27 2.93Q42.59 2.39 43.17 2.07L43.17 2.07L43.17 2.07Q43.74 1.76 44.42 1.76L44.42 1.76L44.42 1.76Q45.13 1.76 45.75 2.12L45.75 2.12L45.75 2.12Q46.38 2.47 47.07 3.42L47.07 3.42L46.25 4.05L46.25 4.05Q45.68 3.29 45.27 3.05L45.27 3.05L45.27 3.05Q44.87 2.81 44.39 2.81L44.39 2.81L44.39 2.81Q43.78 2.81 43.39 3.18L43.39 3.18L43.39 3.18Q43.00 3.55 43.00 4.09L43.00 4.09L43.00 4.09Q43.00 4.42 43.14 4.74L43.14 4.74L43.14 4.74Q43.28 5.05 43.65 5.41L43.65 5.41L43.65 5.41Q43.85 5.61 44.96 6.43L44.96 6.43L44.96 6.43Q46.27 7.40 46.76 8.03L46.76 8.03L46.76 8.03Q47.25 8.67 47.25 9.43L47.25 9.43L47.25 9.43Q47.25 10.53 46.41 11.35L46.41 11.35L46.41 11.35Q45.58 12.16 44.38 12.16L44.38 12.16L44.38 12.16Q43.45 12.16 42.70 11.67L42.70 11.67L42.70 11.67Q41.95 11.18 41.32 10.02ZM51.21 12.10L48.01 4.60L49 4.60L51.30 10.05L53.70 4.60L53.87 4.60L56.27 10.05L58.60 4.60L59.62 4.60L56.36 12.10L56.17 12.10L53.79 6.73L51.39 12.10L51.21 12.10ZM64.29 4.22L64.29 4.22L64.29 4.22Q66.01 4.22 67.16 5.47L67.16 5.47L67.16 5.47Q68.21 6.61 68.21 8.18L68.21 8.18L68.21 8.18Q68.22 12.07 68.21 12.13L68.21 12.13L68.21 12.13Q67.55 12.13 67.19 12.13L67.19 12.13L67.19 12.13Q67.19 12.08 67.19 10.42L67.19 10.42L67.19 10.42Q66.39 11.92 64.29 12.09L64.29 12.09L64.29 12.09Q62.56 12.09 61.47 10.92L61.47 10.92L61.47 10.92Q60.38 9.75 60.38 8.18L60.38 8.18L60.38 8.18Q60.38 6.62 61.41 5.48L61.41 5.48L61.41 5.48Q62.56 4.22 64.29 4.22ZM64.29 5.16L64.29 5.16L64.29 5.16Q63.09 5.16 62.23 6.05L62.23 6.05L62.23 6.05Q61.37 6.94 61.37 8.20L61.37 8.20L61.37 8.20Q61.37 9.01 61.81 9.76L61.81 9.76L61.81 9.76Q62.25 10.51 63.30 11.03L63.30 11.03L63.30 11.03Q65.94 11.62 67.05 8.63L67.05 8.63L67.05 8.63Q67.12 7.68 66.85 6.80L66.85 6.80L66.85 6.80Q66.66 6.41 66.32 6.05L66.32 6.05L66.32 6.05Q65.48 5.16 64.29 5.16ZM69.71 12.07L69.71 8.65L69.71 7.75L69.71 7.75Q69.82 7.08 70.03 6.65L70.03 6.65L70.03 6.65Q70.51 5.48 71.31 4.93L71.31 4.93L71.31 4.93Q72.12 4.38 72.65 4.38L72.65 4.38L72.65 4.38Q73.05 4.38 73.50 4.64L73.50 4.64L73.00 5.45L73.00 5.45Q72.37 5.22 71.74 5.82L71.74 5.82L71.74 5.82Q71.11 6.43 70.88 7.15L70.88 7.15L70.88 7.15Q70.70 7.79 70.70 9.54L70.70 9.54L70.70 12.07L69.71 12.07ZM77.61 4.22L77.61 4.22L77.61 4.22Q79.34 4.22 80.48 5.47L80.48 5.47L80.48 5.47Q81.51 6.62 81.51 8.18L81.51 8.18L81.51 8.18Q81.51 9.75 80.42 10.92L80.42 10.92L80.42 10.92Q79.32 12.09 77.61 12.09L77.61 12.09L77.61 12.09Q75.89 12.09 74.80 10.92L74.80 10.92L74.80 10.92Q73.71 9.75 73.71 8.18L73.71 8.18L73.71 8.18Q73.71 6.62 74.74 5.48L74.74 5.48L74.74 5.48Q75.88 4.22 77.61 4.22ZM77.61 5.16L77.61 5.16L77.61 5.16Q76.41 5.16 75.55 6.05L75.55 6.05L75.55 6.05Q74.69 6.94 74.69 8.20L74.69 8.20L74.69 8.20Q74.69 9.01 75.08 9.72L75.08 9.72L75.08 9.72Q75.48 10.42 76.15 10.80L76.15 10.80L76.15 10.80Q76.82 11.18 77.61 11.18L77.61 11.18L77.61 11.18Q78.42 11.18 79.08 10.80L79.08 10.80L79.08 10.80Q79.75 10.42 80.14 9.72L80.14 9.72L80.14 9.72Q80.53 9.01 80.53 8.20L80.53 8.20L80.53 8.20Q80.53 6.94 79.67 6.05L79.67 6.05L79.67 6.05Q78.80 5.16 77.61 5.16ZM86.83 4.22L86.83 4.22L86.83 4.22Q88.56 4.22 89.70 5.47L89.70 5.47L89.70 5.47Q90.73 6.62 90.73 8.18L90.73 8.18L90.73 8.18Q90.73 9.75 89.64 10.92L89.64 10.92L89.64 10.92Q88.55 12.09 86.83 12.09L86.83 12.09L86.83 12.09Q85.11 12.09 84.02 10.92L84.02 10.92L84.02 10.92Q82.93 9.75 82.93 8.18L82.93 8.18L82.93 8.18Q82.93 6.62 83.96 5.48L83.96 5.48L83.96 5.48Q85.10 4.22 86.83 4.22ZM86.83 5.16L86.83 5.16L86.83 5.16Q85.63 5.16 84.77 6.05L84.77 6.05L84.77 6.05Q83.91 6.94 83.91 8.20L83.91 8.20L83.91 8.20Q83.91 9.01 84.30 9.72L84.30 9.72L84.30 9.72Q84.70 10.42 85.37 10.80L85.37 10.80L85.37 10.80Q86.04 11.18 86.83 11.18L86.83 11.18L86.83 11.18Q87.64 11.18 88.30 10.80L88.30 10.80L88.30 10.80Q88.97 10.42 89.36 9.72L89.36 9.72L89.36 9.72Q89.75 9.01 89.75 8.20L89.75 8.20L89.75 8.20Q89.75 6.94 88.89 6.05L88.89 6.05L88.89 6.05Q88.03 5.16 86.83 5.16ZM93.11 5.71L93.11 5.71L93.11 5.71Q92.50 6.73 92.37 7.72L92.37 7.72L92.37 7.72Q92.37 14.84 92.37 14.83L92.37 14.83L93.33 14.83L93.33 10.64L93.33 10.64Q93.94 11.39 94.69 11.75L94.69 11.75L94.69 11.75Q95.44 12.12 96.34 12.12L96.34 12.12L96.34 12.12Q97.92 12.12 99.05 10.96L99.05 10.96L99.05 10.96Q100.18 9.81 100.18 8.16L100.18 8.16L100.18 8.16Q100.18 6.54 99.05 5.39L99.05 5.39L99.05 5.39Q97.91 4.25 96.31 4.25L96.31 4.25L96.31 4.25Q95.40 4.25 94.59 4.60L94.59 4.60L94.59 4.60Q93.79 4.95 93.11 5.71ZM96.23 5.17L96.23 5.17L96.23 5.17Q97.04 5.17 97.72 5.57L97.72 5.57L97.72 5.57Q98.40 5.97 98.81 6.68L98.81 6.68L98.81 6.68Q99.21 7.39 99.21 8.20L99.21 8.20L99.21 8.20Q99.21 8.99 98.80 9.72L98.80 9.72L98.80 9.72Q98.40 10.45 97.71 10.85L97.71 10.85L97.71 10.85Q97.02 11.25 96.24 11.25L96.24 11.25L96.24 11.25Q95.45 11.25 94.74 10.85L94.74 10.85L94.74 10.85Q94.03 10.45 93.65 9.76L93.65 9.76L93.65 9.76Q93.26 9.07 93.26 8.22L93.26 8.22L93.26 8.22Q93.26 6.92 94.12 6.04L94.12 6.04L94.12 6.04Q94.99 5.17 96.23 5.17Z">
    </path>
  </g>
</svg>